<svg width="31" height="30" viewBox="0 0 31 30" fill="none" xmlns="http://www.w3.org/2000/svg">
<path d="M15.5537 11.25C14.5591 11.25 13.6053 11.6451 12.9021 12.3483C12.1988 13.0516 11.8037 14.0054 11.8037 15C11.8037 15.9946 12.1988 16.9484 12.9021 17.6517C13.6053 18.3549 14.5591 18.75 15.5537 18.75C16.5483 18.75 17.5021 18.3549 18.2054 17.6517C18.9086 16.9484 19.3037 15.9946 19.3037 15C19.3037 14.0054 18.9086 13.0516 18.2054 12.3483C17.5021 11.6451 16.5483 11.25 15.5537 11.25ZM15.5537 8.75C17.2113 8.75 18.801 9.40848 19.9731 10.5806C21.1452 11.7527 21.8037 13.3424 21.8037 15C21.8037 16.6576 21.1452 18.2473 19.9731 19.4194C18.801 20.5915 17.2113 21.25 15.5537 21.25C13.8961 21.25 12.3064 20.5915 11.1343 19.4194C9.96219 18.2473 9.30371 16.6576 9.30371 15C9.30371 13.3424 9.96219 11.7527 11.1343 10.5806C12.3064 9.40848 13.8961 8.75 15.5537 8.75ZM23.6787 8.4375C23.6787 8.8519 23.5141 9.24933 23.2211 9.54235C22.928 9.83538 22.5306 10 22.1162 10C21.7018 10 21.3044 9.83538 21.0114 9.54235C20.7183 9.24933 20.5537 8.8519 20.5537 8.4375C20.5537 8.0231 20.7183 7.62567 21.0114 7.33265C21.3044 7.03962 21.7018 6.875 22.1162 6.875C22.5306 6.875 22.928 7.03962 23.2211 7.33265C23.5141 7.62567 23.6787 8.0231 23.6787 8.4375ZM15.5537 5C12.4612 5 11.9562 5.00875 10.5175 5.0725C9.53746 5.11875 8.87996 5.25 8.26996 5.4875C7.75948 5.67492 7.29798 5.97533 6.91996 6.36625C6.52872 6.74425 6.2279 7.20573 6.03996 7.71625C5.80246 8.32875 5.67121 8.985 5.62621 9.96375C5.56121 11.3438 5.55246 11.8262 5.55246 15C5.55246 18.0937 5.56121 18.5975 5.62496 20.0362C5.67121 21.015 5.80246 21.6738 6.03871 22.2825C6.25121 22.8263 6.50121 23.2175 6.91621 23.6325C7.33746 24.0525 7.72871 24.3037 8.26621 24.5112C8.88371 24.75 9.54121 24.8825 10.5162 24.9275C11.8962 24.9925 12.3787 25 15.5525 25C18.6462 25 19.15 24.9912 20.5887 24.9275C21.5662 24.8812 22.2237 24.75 22.835 24.5138C23.345 24.3254 23.8063 24.0251 24.185 23.635C24.6062 23.215 24.8575 22.8237 25.065 22.285C25.3025 21.67 25.435 21.0125 25.48 20.035C25.545 18.6562 25.5525 18.1725 25.5525 15C25.5525 11.9075 25.5437 11.4025 25.48 9.96375C25.4337 8.98625 25.3012 8.32625 25.065 7.71625C24.8765 7.20627 24.5763 6.74498 24.1862 6.36625C23.8084 5.97481 23.3468 5.67396 22.8362 5.48625C22.2237 5.24875 21.5662 5.1175 20.5887 5.0725C19.21 5.0075 18.7287 5 15.5537 5ZM15.5537 2.5C18.95 2.5 19.3737 2.5125 20.7075 2.575C22.0375 2.6375 22.945 2.84625 23.7412 3.15625C24.5662 3.47375 25.2612 3.90375 25.9562 4.5975C26.5918 5.22237 27.0837 5.97824 27.3975 6.8125C27.7062 7.60875 27.9162 8.51625 27.9787 9.8475C28.0375 11.18 28.0537 11.6037 28.0537 15C28.0537 18.3963 28.0412 18.82 27.9787 20.1525C27.9162 21.4837 27.7062 22.39 27.3975 23.1875C27.0845 24.0222 26.5926 24.7782 25.9562 25.4025C25.3312 26.0379 24.5753 26.5297 23.7412 26.8438C22.945 27.1525 22.0375 27.3625 20.7075 27.425C19.3737 27.4838 18.95 27.5 15.5537 27.5C12.1575 27.5 11.7337 27.4875 10.4 27.425C9.06996 27.3625 8.16371 27.1525 7.36621 26.8438C6.53162 26.5306 5.77562 26.0387 5.15121 25.4025C4.5155 24.7777 4.02366 24.0218 3.70996 23.1875C3.39996 22.3912 3.19121 21.4837 3.12871 20.1525C3.06871 18.82 3.05371 18.3963 3.05371 15C3.05371 11.6037 3.06621 11.18 3.12871 9.8475C3.19121 8.515 3.39996 7.61 3.70996 6.8125C4.02276 5.97772 4.51472 5.22165 5.15121 4.5975C5.7758 3.96154 6.53175 3.46966 7.36621 3.15625C8.16246 2.84625 9.06871 2.6375 10.4 2.575C11.7337 2.51625 12.1575 2.5 15.5537 2.5Z" fill="black"/>
</svg>
