<svg width="31" height="30" viewBox="0 0 31 30" fill="none" xmlns="http://www.w3.org/2000/svg">
<path d="M24.3022 3.75C24.9653 3.75 25.6012 4.01339 26.07 4.48223C26.5389 4.95107 26.8022 5.58696 26.8022 6.25V23.75C26.8022 24.413 26.5389 25.0489 26.07 25.5178C25.6012 25.9866 24.9653 26.25 24.3022 26.25H6.80225C6.1392 26.25 5.50332 25.9866 5.03448 25.5178C4.56564 25.0489 4.30225 24.413 4.30225 23.75V6.25C4.30225 5.58696 4.56564 4.95107 5.03448 4.48223C5.50332 4.01339 6.1392 3.75 6.80225 3.75H24.3022ZM23.6772 23.125V16.5C23.6772 15.4192 23.2479 14.3828 22.4837 13.6185C21.7195 12.8543 20.683 12.425 19.6022 12.425C18.5397 12.425 17.3022 13.075 16.7022 14.05V12.6625H13.2147V23.125H16.7022V16.9625C16.7022 16 17.4772 15.2125 18.4397 15.2125C18.9039 15.2125 19.349 15.3969 19.6772 15.7251C20.0054 16.0533 20.1897 16.4984 20.1897 16.9625V23.125H23.6772ZM9.15225 10.7C9.7092 10.7 10.2433 10.4788 10.6372 10.0849C11.031 9.6911 11.2522 9.15695 11.2522 8.6C11.2522 7.4375 10.3147 6.4875 9.15225 6.4875C8.59198 6.4875 8.05465 6.71007 7.65848 7.10624C7.26231 7.50241 7.03975 8.03973 7.03975 8.6C7.03975 9.7625 7.98975 10.7 9.15225 10.7ZM10.8897 23.125V12.6625H7.42725V23.125H10.8897Z" fill="black"/>
</svg>
