<svg width="129" height="70" viewBox="0 0 129 70" fill="none" xmlns="http://www.w3.org/2000/svg">
<path d="M13.08 42.28C13.8533 42.28 14.4133 42.0533 14.76 41.6C15.1333 41.12 15.4133 40.5467 15.6 39.88H20.64C20.5333 40.8667 20.28 41.8 19.88 42.68C19.48 43.5333 18.9467 44.28 18.28 44.92C17.64 45.56 16.8667 46.0667 15.96 46.44C15.08 46.8133 14.1333 47 13.12 47H9.68C8.61333 47 7.6 46.8 6.64 46.4C5.68 45.9733 4.84 45.4 4.12 44.68C3.4 43.96 2.82667 43.12 2.4 42.16C2 41.2 1.8 40.1733 1.8 39.08V27.72C1.8 26.6267 2 25.6 2.4 24.64C2.82667 23.6533 3.4 22.8 4.12 22.08C4.84 21.36 5.68 20.8 6.64 20.4C7.6 19.9733 8.61333 19.76 9.68 19.76H13.12C14.16 19.76 15.12 19.9467 16 20.32C16.88 20.6933 17.64 21.2133 18.28 21.88C18.9467 22.52 19.48 23.28 19.88 24.16C20.28 25.04 20.5333 25.9867 20.64 27H15.6C15.4667 26.3067 15.2133 25.72 14.84 25.24C14.4667 24.76 13.88 24.52 13.08 24.52H9.72C8.78667 24.52 8.04 24.8533 7.48 25.52C6.94667 26.1867 6.68 27 6.68 27.96V38.8C6.68 39.76 6.94667 40.5867 7.48 41.28C8.04 41.9467 8.78667 42.28 9.72 42.28H13.08ZM31.5522 31.2C30.8589 31.2 30.2855 31.2933 29.8322 31.48C29.4055 31.64 29.0722 31.8667 28.8322 32.16C28.5922 32.4533 28.4189 32.8133 28.3122 33.24C28.2322 33.64 28.1922 34.08 28.1922 34.56V47H23.7122V19.76H28.1922V27.08C28.5922 26.9467 29.0055 26.84 29.4322 26.76C29.8855 26.68 30.3655 26.64 30.8722 26.64H33.2722C34.4455 26.64 35.4722 26.84 36.3522 27.24C37.2589 27.64 38.0055 28.1733 38.5922 28.84C39.2055 29.48 39.6589 30.2267 39.9522 31.08C40.2455 31.9067 40.3922 32.7467 40.3922 33.6V47H35.8722V34.56C35.8722 34.08 35.8322 33.64 35.7522 33.24C35.6722 32.8133 35.4989 32.4533 35.2322 32.16C34.9922 31.8667 34.6589 31.64 34.2322 31.48C33.8055 31.2933 33.2455 31.2 32.5522 31.2H31.5522ZM42.9578 33.08C43.0378 32.2267 43.2245 31.4133 43.5178 30.64C43.8378 29.8667 44.2911 29.1867 44.8778 28.6C45.4645 28.0133 46.1978 27.5467 47.0778 27.2C47.9578 26.8267 48.9711 26.64 50.1178 26.64H52.5178C53.7178 26.64 54.7578 26.84 55.6378 27.24C56.5445 27.64 57.2911 28.1733 57.8778 28.84C58.4645 29.48 58.9045 30.2267 59.1978 31.08C59.4911 31.9067 59.6378 32.7467 59.6378 33.6V47H48.2778C47.3978 47 46.6111 46.84 45.9178 46.52C45.2245 46.1733 44.6378 45.7333 44.1578 45.2C43.7045 44.64 43.3578 43.9867 43.1178 43.24C42.9045 42.4933 42.7978 41.6933 42.7978 40.84C42.7978 40.0133 42.9178 39.24 43.1578 38.52C43.3978 37.8 43.7445 37.1867 44.1978 36.68C44.6511 36.1467 45.2111 35.7333 45.8778 35.44C46.5711 35.12 47.3445 34.96 48.1978 34.96H55.0378V34.56C55.0378 34.08 54.9978 33.64 54.9178 33.24C54.8378 32.8133 54.6911 32.4533 54.4778 32.16C54.2645 31.8667 53.9445 31.64 53.5178 31.48C53.0911 31.2933 52.5178 31.2 51.7978 31.2H50.7978C49.7311 31.2 48.9711 31.36 48.5178 31.68C48.0645 31.9733 47.7578 32.44 47.5978 33.08H42.9578ZM47.0778 40.84C47.0778 41.5333 47.2111 42.0533 47.4778 42.4C47.7711 42.72 48.0911 42.88 48.4378 42.88H55.0378V38.8H48.4378C48.0911 38.8 47.7711 38.9733 47.4778 39.32C47.2111 39.6667 47.0778 40.1733 47.0778 40.84ZM71.1728 31.2C70.4795 31.2 69.9061 31.2933 69.4528 31.48C69.0261 31.64 68.6928 31.8667 68.4528 32.16C68.2128 32.4533 68.0395 32.8133 67.9328 33.24C67.8528 33.64 67.8128 34.08 67.8128 34.56V47H63.1328V26.64H67.8128V27.16C68.7461 26.8133 69.7461 26.64 70.8128 26.64H72.8928C74.0661 26.64 75.1061 26.84 76.0128 27.24C76.9195 27.64 77.6661 28.1733 78.2528 28.84C78.8661 29.48 79.3195 30.2267 79.6128 31.08C79.9328 31.9067 80.0928 32.7467 80.0928 33.6V47H75.4128V34.56C75.4128 34.08 75.3728 33.64 75.2928 33.24C75.2128 32.8133 75.0528 32.4533 74.8128 32.16C74.5995 31.8667 74.2795 31.64 73.8528 31.48C73.4261 31.2933 72.8528 31.2 72.1328 31.2H71.1728ZM99.4472 26.64V47.04C99.4472 48.1333 99.2872 49.0933 98.9672 49.92C98.6472 50.7733 98.2072 51.4933 97.6472 52.08C97.0872 52.6933 96.4072 53.1467 95.6072 53.44C94.8072 53.76 93.9272 53.92 92.9672 53.92H83.8072V49.48H92.2072C93.0339 49.48 93.7139 49.2267 94.2472 48.72C94.8072 48.2133 95.0872 47.5067 95.0872 46.6V46.36H89.1272C88.2472 46.36 87.4072 46.2133 86.6072 45.92C85.8339 45.6 85.1539 45.1333 84.5672 44.52C83.9805 43.9067 83.5139 43.16 83.1672 42.28C82.8205 41.3733 82.6472 40.3333 82.6472 39.16V33.84C82.6472 32.6667 82.8205 31.64 83.1672 30.76C83.5139 29.8533 83.9805 29.0933 84.5672 28.48C85.1539 27.8667 85.8339 27.4133 86.6072 27.12C87.4072 26.8 88.2472 26.64 89.1272 26.64H99.4472ZM95.0472 31.08H90.1272C89.7272 31.08 89.3539 31.1733 89.0072 31.36C88.6605 31.52 88.3539 31.76 88.0872 32.08C87.8205 32.3733 87.6072 32.7067 87.4472 33.08C87.2872 33.4533 87.2072 33.8667 87.2072 34.32V38.64C87.2072 39.0933 87.2872 39.52 87.4472 39.92C87.6072 40.32 87.8205 40.6667 88.0872 40.96C88.3539 41.2533 88.6605 41.4933 89.0072 41.68C89.3539 41.84 89.7272 41.92 90.1272 41.92H95.0472V31.08Z" fill="#E78124"/>
<path d="M107.3 47H102.58V26.64H107.3V47ZM107.3 24.44H102.58V19.76H107.3V24.44ZM110.263 33.08C110.343 32.2267 110.529 31.4133 110.823 30.64C111.143 29.8667 111.596 29.1867 112.183 28.6C112.769 28.0133 113.503 27.5467 114.383 27.2C115.263 26.8267 116.276 26.64 117.423 26.64H119.823C121.023 26.64 122.063 26.84 122.943 27.24C123.849 27.64 124.596 28.1733 125.183 28.84C125.769 29.48 126.209 30.2267 126.503 31.08C126.796 31.9067 126.943 32.7467 126.943 33.6V47H115.583C114.703 47 113.916 46.84 113.223 46.52C112.529 46.1733 111.943 45.7333 111.463 45.2C111.009 44.64 110.663 43.9867 110.423 43.24C110.209 42.4933 110.103 41.6933 110.103 40.84C110.103 40.0133 110.223 39.24 110.463 38.52C110.703 37.8 111.049 37.1867 111.503 36.68C111.956 36.1467 112.516 35.7333 113.183 35.44C113.876 35.12 114.649 34.96 115.503 34.96H122.343V34.56C122.343 34.08 122.303 33.64 122.223 33.24C122.143 32.8133 121.996 32.4533 121.783 32.16C121.569 31.8667 121.249 31.64 120.822 31.48C120.396 31.2933 119.823 31.2 119.103 31.2H118.103C117.036 31.2 116.276 31.36 115.823 31.68C115.369 31.9733 115.063 32.44 114.903 33.08H110.263ZM114.383 40.84C114.383 41.5333 114.516 42.0533 114.783 42.4C115.076 42.72 115.396 42.88 115.743 42.88H122.343V38.8H115.743C115.396 38.8 115.076 38.9733 114.783 39.32C114.516 39.6667 114.383 40.1733 114.383 40.84Z" fill="#151212"/>
</svg>
