<svg width="31" height="30" viewBox="0 0 31 30" fill="none" xmlns="http://www.w3.org/2000/svg">
<path d="M28.6271 7.5C27.6646 7.9375 26.6271 8.225 25.5521 8.3625C26.6521 7.7 27.5021 6.65 27.9021 5.3875C26.8646 6.0125 25.7146 6.45 24.5021 6.7C23.5146 5.625 22.1271 5 20.5521 5C17.6146 5 15.2146 7.4 15.2146 10.3625C15.2146 10.7875 15.2646 11.2 15.3521 11.5875C10.9021 11.3625 6.93955 9.225 4.30205 5.9875C3.83955 6.775 3.57705 7.7 3.57705 8.675C3.57705 10.5375 4.51455 12.1875 5.96455 13.125C5.07705 13.125 4.25205 12.875 3.52705 12.5V12.5375C3.52705 15.1375 5.37705 17.3125 7.82705 17.8C7.04046 18.0153 6.21467 18.0452 5.41455 17.8875C5.75406 18.9531 6.41897 19.8855 7.31582 20.5537C8.21267 21.2218 9.29636 21.5921 10.4146 21.6125C8.51909 23.113 6.16955 23.9241 3.75205 23.9125C3.32705 23.9125 2.90205 23.8875 2.47705 23.8375C4.85205 25.3625 7.67705 26.25 10.7021 26.25C20.5521 26.25 25.9646 18.075 25.9646 10.9875C25.9646 10.75 25.9646 10.525 25.9521 10.2875C27.0021 9.5375 27.9021 8.5875 28.6271 7.5Z" fill="black"/>
</svg>
